<?xml version="1.0" encoding="UTF-8" standalone="no"?>
<!-- Created with Inkscape (http://www.inkscape.org/) -->

<svg
   width="300"
   height="150"
   viewBox="0 0 300 150"
   version="1.1"
   id="svg1"
   xml:space="preserve"
   inkscape:version="1.4 (86a8ad7, 2024-10-11)"
   sodipodi:docname="logo-empresa.svg"
   xmlns:inkscape="http://www.inkscape.org/namespaces/inkscape"
   xmlns:sodipodi="http://sodipodi.sourceforge.net/DTD/sodipodi-0.dtd"
   xmlns:xlink="http://www.w3.org/1999/xlink"
   xmlns="http://www.w3.org/2000/svg"
   xmlns:svg="http://www.w3.org/2000/svg"><sodipodi:namedview
     id="namedview1"
     pagecolor="#ffffff"
     bordercolor="#000000"
     borderopacity="0.25"
     inkscape:showpageshadow="2"
     inkscape:pageopacity="0.0"
     inkscape:pagecheckerboard="0"
     inkscape:deskcolor="#d1d1d1"
     inkscape:document-units="px"
     inkscape:zoom="4.0246161"
     inkscape:cx="158.4002"
     inkscape:cy="78.1441"
     inkscape:window-width="1366"
     inkscape:window-height="697"
     inkscape:window-x="-8"
     inkscape:window-y="-8"
     inkscape:window-maximized="1"
     inkscape:current-layer="layer1" /><defs
     id="defs1"><linearGradient
   id="linearGradient55"
   inkscape:collect="always"><stop
     style="stop-color:#4b81a6;stop-opacity:1;"
     offset="0"
     id="stop55" /><stop
     style="stop-color:#213c4f;stop-opacity:1;"
     offset="1"
     id="stop56" /></linearGradient><linearGradient
   id="linearGradient51"
   inkscape:collect="always"><stop
     style="stop-color:#52c4de;stop-opacity:1;"
     offset="1"
     id="stop51" /><stop
     style="stop-color:#1b00ac;stop-opacity:1;"
     offset="1"
     id="stop52" /></linearGradient><linearGradient
   id="linearGradient3"
   inkscape:collect="always"><stop
     style="stop-color:#000000;stop-opacity:1;"
     offset="0"
     id="stop3" /><stop
     style="stop-color:#00009a;stop-opacity:0.88636363;"
     offset="1"
     id="stop4" /></linearGradient><linearGradient
   id="linearGradient1"
   inkscape:collect="always"><stop
     style="stop-color:#00a1d9;stop-opacity:1;"
     offset="0"
     id="stop1" /><stop
     style="stop-color:#0000df;stop-opacity:0.51704544;"
     offset="1"
     id="stop2" /></linearGradient><rect
   id="SVGID_1_"
   style="opacity:0.5"
   width="500"
   height="500"
   x="0"
   y="0" />
	

		
			<linearGradient
   id="SVGID_00000176748489491420864570000010112777437070487213_"
   gradientUnits="userSpaceOnUse"
   x1="250"
   y1="230.5298"
   x2="250"
   y2="105.9486"
   gradientTransform="matrix(0.43040559,0,0,0.43614559,42.774984,-18.612906)">
			<stop
   offset="0"
   style="stop-color:#1B3242"
   id="stop11" />
			<stop
   offset="1"
   style="stop-color:#417aa1;stop-opacity:0.94901961;"
   id="stop12" />
		</linearGradient>
		
		
		
		
		
			
		
		
			<radialGradient
   id="SVGID_00000075153276110912901780000003345588229689597573_"
   cx="260.04831"
   cy="134.9185"
   r="122.3686"
   gradientUnits="userSpaceOnUse"
   gradientTransform="matrix(1.5945559,0,0,1.4281197,565.23716,30.52802)">
			<stop
   offset="0"
   style="stop-color:#7B728C"
   id="stop16" />
			<stop
   offset="1"
   style="stop-color:#E1D9FF;stop-opacity:0"
   id="stop17" />
		</radialGradient>
		
		
			<radialGradient
   id="SVGID_00000051372180309742942890000010693022119366220720_"
   cx="318.98981"
   cy="166.82491"
   r="83.069702"
   gradientUnits="userSpaceOnUse"
   gradientTransform="matrix(1.5945559,0,0,1.4281197,641.7662,57.362877)">
			<stop
   offset="0"
   style="stop-color:#7B728C"
   id="stop18" />
			<stop
   offset="1"
   style="stop-color:#E1D9FF;stop-opacity:0"
   id="stop19" />
		</radialGradient>
		
		
			<radialGradient
   id="SVGID_00000021841616696364044530000013979178967053818240_"
   cx="187.7619"
   cy="159.0052"
   r="58.155701"
   gradientUnits="userSpaceOnUse"
   gradientTransform="matrix(1.5945559,0,0,1.4281197,565.23716,113.02036)">
			<stop
   offset="0"
   style="stop-color:#7B728C"
   id="stop20" />
			<stop
   offset="1"
   style="stop-color:#E1D9FF;stop-opacity:0"
   id="stop21" />
		</radialGradient>
		
		
			<radialGradient
   id="SVGID_00000136412250425048276050000000546692119173729441_"
   cx="281.71689"
   cy="196.69971"
   r="48.837502"
   gradientUnits="userSpaceOnUse"
   gradientTransform="matrix(1.5945559,0,0,1.4281197,595.05367,58.356761)">
			<stop
   offset="0"
   style="stop-color:#7B728C"
   id="stop22" />
			<stop
   offset="1"
   style="stop-color:#E1D9FF;stop-opacity:0"
   id="stop23" />
		</radialGradient>
		
		
		
			<radialGradient
   id="SVGID_00000110465478472547128330000000114246621487386276_"
   cx="166.5961"
   cy="110.1783"
   r="0.4637"
   gradientUnits="userSpaceOnUse"
   gradientTransform="matrix(0.44795185,0,0,0.39293167,75.390035,31.731328)">
			<stop
   offset="0"
   style="stop-color:#7B728C"
   id="stop36" />
			<stop
   offset="1"
   style="stop-color:#E1D9FF;stop-opacity:0"
   id="stop37" />
		</radialGradient>
		
		
			<linearGradient
   id="SVGID_00000078016161882414074580000012325035365462000820_"
   gradientUnits="userSpaceOnUse"
   x1="250.00301"
   y1="300.15659"
   x2="250.00301"
   y2="249.7751"
   gradientTransform="matrix(0.45939677,0,0,0.53808811,35.646467,-43.641832)">
			<stop
   offset="0"
   style="stop-color:#1b3242;stop-opacity:0.71590906;"
   id="stop38" />
			<stop
   offset="1"
   style="stop-color:#4683ad;stop-opacity:0.97727275;"
   id="stop39" />
		</linearGradient>
		
		
			<radialGradient
   id="SVGID_00000171693873513714290360000008877179607136996755_"
   cx="241.06531"
   cy="292.75131"
   r="177.0058"
   gradientUnits="userSpaceOnUse"
   gradientTransform="matrix(1.5945559,0,0,1.4281197,206.44517,-62.89704)">
			<stop
   offset="0"
   style="stop-color:#7B728C"
   id="stop40" />
			<stop
   offset="1"
   style="stop-color:#E1D9FF;stop-opacity:0"
   id="stop41" />
		</radialGradient>
		
		
			<linearGradient
   id="SVGID_00000013193506636857558620000016064985728059886012_"
   gradientUnits="userSpaceOnUse"
   x1="249.5686"
   y1="272.61429"
   x2="257.18219"
   y2="244.1338"
   gradientTransform="matrix(0.44795184,0,0,0.46774139,38.010806,-27.306166)">
			<stop
   offset="0"
   style="stop-color:#356FAF"
   id="stop42" />
			<stop
   offset="1"
   style="stop-color:#64B5F6"
   id="stop43" />
		</linearGradient>
		
		
			<radialGradient
   id="SVGID_00000016791288058108732460000012916318641643434880_"
   cx="244.2415"
   cy="266.62329"
   r="115.0425"
   gradientUnits="userSpaceOnUse"
   gradientTransform="matrix(1.5945559,0,0,1.4281197,810.72641,79.228317)">
			<stop
   offset="0"
   style="stop-color:#7B728C"
   id="stop44" />
			<stop
   offset="1"
   style="stop-color:#E1D9FF;stop-opacity:0"
   id="stop45" />
		</radialGradient>
		
	
			
			
			
		<linearGradient
   inkscape:collect="always"
   xlink:href="#linearGradient1"
   id="linearGradient2"
   x1="186.47864"
   y1="180.383"
   x2="320.19901"
   y2="180.383"
   gradientUnits="userSpaceOnUse" /><linearGradient
   inkscape:collect="always"
   xlink:href="#linearGradient3"
   id="linearGradient4"
   x1="144.95543"
   y1="155.07442"
   x2="268.991"
   y2="155.07442"
   gradientUnits="userSpaceOnUse" /><linearGradient
   inkscape:collect="always"
   xlink:href="#linearGradient3"
   id="linearGradient47"
   gradientUnits="userSpaceOnUse"
   x1="144.95543"
   y1="155.07442"
   x2="268.991"
   y2="155.07442" /><linearGradient
   inkscape:collect="always"
   xlink:href="#linearGradient3"
   id="linearGradient48"
   gradientUnits="userSpaceOnUse"
   x1="144.95543"
   y1="155.07442"
   x2="268.991"
   y2="155.07442" /><linearGradient
   inkscape:collect="always"
   xlink:href="#linearGradient1"
   id="linearGradient49"
   gradientUnits="userSpaceOnUse"
   x1="186.47864"
   y1="180.383"
   x2="320.19901"
   y2="180.383" /><linearGradient
   inkscape:collect="always"
   xlink:href="#linearGradient1"
   id="linearGradient50"
   gradientUnits="userSpaceOnUse"
   x1="186.47864"
   y1="180.383"
   x2="320.19901"
   y2="180.383" /><rect
   id="SVGID_1_-4"
   width="500"
   height="500"
   x="0"
   y="0" />
	

	

	
	
	
	
	
	

		
		
		
	
			
				<linearGradient
   id="SVGID_00000028282645098804904520000001556704900854612377_"
   gradientUnits="userSpaceOnUse"
   x1="128.6884"
   y1="317.83011"
   x2="153.8808"
   y2="415.60089"
   gradientTransform="matrix(10.584459,0,0,9.3861997,78.834965,-2921.3946)">
				<stop
   offset="0"
   style="stop-color:#6AE7FD"
   id="stop59" />
				<stop
   offset="1"
   style="stop-color:#004973"
   id="stop60" />
			</linearGradient>
			
			
				<linearGradient
   id="SVGID_00000152957380782072046060000000446090916642425739_"
   gradientUnits="userSpaceOnUse"
   x1="120.3683"
   y1="319.97379"
   x2="145.5607"
   y2="417.7446"
   gradientTransform="matrix(10.584459,0,0,9.3861997,78.834965,-2921.3946)">
				<stop
   offset="0"
   style="stop-color:#6AE7FD"
   id="stop61" />
				<stop
   offset="1"
   style="stop-color:#004973"
   id="stop62" />
			</linearGradient>
			
			
				<linearGradient
   id="SVGID_00000102527035834251389490000016678010259179124667_"
   gradientUnits="userSpaceOnUse"
   x1="139.1331"
   y1="315.1387"
   x2="164.3255"
   y2="412.90961"
   gradientTransform="matrix(10.770564,0,0,9.4754146,-704.85819,-2828.6101)">
				<stop
   offset="0"
   style="stop-color:#6AE7FD"
   id="stop63" />
				<stop
   offset="1"
   style="stop-color:#427aa1;stop-opacity:0.94509804;"
   id="stop64" />
			</linearGradient>
			
			
				<linearGradient
   id="SVGID_00000017483130297639977120000014656593333724250030_"
   gradientUnits="userSpaceOnUse"
   x1="134.7955"
   y1="316.25629"
   x2="159.98801"
   y2="414.0274"
   gradientTransform="matrix(10.584459,0,0,9.3861997,78.834965,-2921.3946)">
				<stop
   offset="0"
   style="stop-color:#6AE7FD"
   id="stop65" />
				<stop
   offset="1"
   style="stop-color:#004973"
   id="stop66" />
			</linearGradient>
			
			
				<linearGradient
   id="SVGID_00000013908247723610575250000011871295999768429710_"
   gradientUnits="userSpaceOnUse"
   x1="145.48151"
   y1="313.5029"
   x2="170.674"
   y2="411.27359"
   gradientTransform="matrix(10.584459,0,0,9.3861997,78.834965,-2921.3946)">
				<stop
   offset="0"
   style="stop-color:#6AE7FD"
   id="stop67" />
				<stop
   offset="1"
   style="stop-color:#004973"
   id="stop68" />
			</linearGradient>
			
			
				<linearGradient
   id="SVGID_00000132078387175722146230000013878573210613452447_"
   gradientUnits="userSpaceOnUse"
   x1="122.5437"
   y1="319.4133"
   x2="147.7361"
   y2="417.18399"
   gradientTransform="matrix(10.770564,0,0,9.4754146,-677.02945,-2961.7905)">
				<stop
   offset="0"
   style="stop-color:#6AE7FD"
   id="stop69" />
				<stop
   offset="1"
   style="stop-color:#4c94b8;stop-opacity:0.95686275;"
   id="stop70" />
			</linearGradient>
			
		<linearGradient
   inkscape:collect="always"
   xlink:href="#linearGradient51"
   id="linearGradient52"
   x1="678.2052"
   y1="625.12231"
   x2="1147.0829"
   y2="625.12231"
   gradientUnits="userSpaceOnUse"
   gradientTransform="matrix(0.20978182,0,0,0.20978182,57.922932,-22.472601)" /><linearGradient
   inkscape:collect="always"
   xlink:href="#linearGradient55"
   id="linearGradient56"
   x1="620.98779"
   y1="540"
   x2="1299.0122"
   y2="540"
   gradientUnits="userSpaceOnUse"
   gradientTransform="matrix(0.2230479,0,0,0.21845348,-64.125989,-42.96489)" /></defs><g
     inkscape:label="Capa 1"
     inkscape:groupmode="layer"
     id="layer1"><ellipse
       style="fill:#ffffff;fill-opacity:1;stroke:url(#linearGradient56);stroke-width:7.06365;stroke-linecap:round;stroke-linejoin:round;stroke-dasharray:none;stroke-opacity:1;paint-order:stroke fill markers"
       id="path55"
       cx="149.99998"
       cy="75"
       rx="72.047195"
       ry="70.563133" /><rect
       x="56.279964"
       y="61.165657"
       style="fill:none;stroke-width:0.419542"
       width="187.44008"
       height="27.668676"
       id="rect12" /><rect
       x="76.143715"
       y="69.459663"
       style="fill:none;stroke-width:0.419542"
       width="147.71257"
       height="11.080673"
       id="rect13" /><path
       style="fill:url(#SVGID_00000110465478472547128330000000114246621487386276_);stroke-width:0.419542"
       d="m 150.16036,74.9935 c -0.10838,0 -0.21726,0.0043 -0.32073,0.013 0.0296,-0.0043 0.0591,-0.0043 0.0887,-0.0086 0.0443,-0.0043 0.0936,-0.0043 0.1429,-0.0043 z"
       id="path37" /><path
       style="fill:url(#SVGID_00000176748489491420864570000010112777437070487213_);stroke-width:0.433267"
       d="m 110.26775,72.914428 v -3.036883 c 0,-3.906556 3.08213,-6.256506 6.31663,-7.731553 2.32375,-1.066813 4.72327,-1.67698 6.12209,-2.085646 -4.04495,3.113642 -6.12209,6.23252 -6.12209,9.817199 v 2.215183 c 0,0.06237 0.005,0.119943 0.0189,0.177947 0.0331,0.173152 0.11836,0.331473 0.23715,0.45185 0.16141,0.158755 0.37919,0.259505 0.62108,0.259505 h 9.11427 l -1.66912,1.802154 0.68779,1.470246 1.46553,3.12324 h -10.40892 c -3.52847,0 -6.38335,-2.892954 -6.38335,-6.463242 z m 6.31663,-38.956524 c 0,-0.490229 0.38393,-0.884068 0.86769,-0.888865 h -2.83593 c -0.49325,0 -0.96756,0.08156 -1.40829,0.240315 -1.71173,0.590979 -2.9401,2.234374 -2.9401,4.17086 v 18.500423 l 6.31663,-0.403867 z m 47.88563,39.139268 c -0.29397,-0.07676 -0.59741,-0.115142 -0.91506,-0.115142 h -16.07089 l -1.7354,3.2724 -1.65491,3.12324 h 16.72515 c 1.35145,0 2.63664,0.576584 3.54219,1.590623 l 2.95905,3.315577 v -7.486875 c 0,-0.182744 -0.0143,-0.365052 -0.0379,-0.543001 -0.21864,-1.542211 -1.34244,-2.786969 -2.81227,-3.156822 z M 114.39362,29.411959 c -0.0284,0.0048 -0.0568,0.0048 -0.0852,0.0096 0.0994,-0.0096 0.20401,-0.01439 0.30818,-0.01439 h 71.60526 c 1.87788,0 3.4949,1.129181 4.23003,2.753388 0.0143,0.02397 0.0237,0.04798 0.0331,0.07197 v -2.758185 c 0,-3.570288 -2.85489,-6.468041 -6.38293,-6.468041 h -67.45142 c -3.52803,0 -6.38291,2.897753 -6.38291,6.468041 v 2.758185 c 0.01,-0.024 0.0189,-0.04798 0.0331,-0.07197 0.7162,-1.585827 2.27169,-2.695816 4.09274,-2.748589 z m 69.51865,43.310566 c -0.11836,0.119939 -0.27027,0.206733 -0.44116,0.240315 -0.0568,0.01439 -0.11361,0.01918 -0.17561,0.01918 h -5.89396 c -1.8968,0 -3.4665,1.422272 -3.72732,3.2724 -0.0237,0.177947 -0.0379,0.360258 -0.0379,0.543002 v 2.580672 h 10.46574 c 3.52804,0 6.38293,-2.892951 6.38293,-6.46324 v -35.43464 c 0,-1.936486 -1.2284,-3.579881 -2.94011,-4.17086 -0.44115,-0.158756 -0.91502,-0.240315 -1.40829,-0.240315 h -2.84068 c 0.48378,0 0.87244,0.399073 0.87244,0.884067 v 38.144421 c 0,0.245112 -0.0947,0.466239 -0.2561,0.624998 z"
       id="path12" /><g
       id="g31"
       transform="matrix(0.43040559,0,0,0.43614559,43.344074,-19.612398)"
       style="fill:url(#linearGradient2)">
				
					<linearGradient
   id="SVGID_00000124145487271394916710000015110445954437204614_"
   gradientUnits="userSpaceOnUse"
   x1="186.478"
   y1="180.3829"
   x2="320.19919"
   y2="180.3829"
   style="fill:url(#linearGradient2)">
					<stop
   offset="0"
   style="stop-color:#3FAF5C;fill:url(#linearGradient2)"
   id="stop28" />
					<stop
   offset="1"
   style="stop-color:#72F68B;fill:url(#linearGradient2)"
   id="stop29" />
				</linearGradient>
				<path
   style="fill:url(#linearGradient49)"
   d="m 320.199,126.749 -13.959,19.182 -2.06,-5.465 c -74.931,41.625 -106.255,75.438 -94.697,93.551 -32.26,-3.647 -28.91,-28.227 -0.419,-49.646 34.342,-25.803 61.401,-38.286 90.951,-51.662 l -4.396,-4.528 z"
   id="path29" />
				
					<radialGradient
   id="SVGID_00000087397838329417196820000000621928343533199529_"
   cx="279.4819"
   cy="206.19411"
   r="163.657"
   gradientUnits="userSpaceOnUse"
   style="fill:url(#linearGradient2)">
					<stop
   offset="0"
   style="stop-color:#7B728C;fill:url(#linearGradient2)"
   id="stop30" />
					<stop
   offset="1"
   style="stop-color:#E1D9FF;stop-opacity:0;fill:url(#linearGradient2)"
   id="stop31" />
				</radialGradient>
				<path
   style="fill:url(#linearGradient50)"
   d="m 320.199,126.749 -13.959,19.182 -2.06,-5.465 c -74.931,41.625 -106.255,75.438 -94.697,93.551 -44.348,-18.008 39.027,-74.228 97.079,-101.263 0.956,5.868 10.427,-3.686 13.637,-6.005 z"
   id="path31" />
			</g><g
       id="g35"
       transform="matrix(0.43040559,0,0,0.43614559,47.603863,-17.702314)"
       style="fill:url(#linearGradient4)">
				
					<linearGradient
   id="SVGID_00000048463590756083432340000018231053817102801587_"
   gradientUnits="userSpaceOnUse"
   x1="176.7543"
   y1="167.7171"
   x2="243.9856"
   y2="119.8956"
   style="fill:url(#linearGradient4)">
					<stop
   offset="0"
   style="stop-color:#AF5C42;fill:url(#linearGradient4)"
   id="stop32" />
					<stop
   offset="1"
   style="stop-color:#F69177;fill:url(#linearGradient4)"
   id="stop33" />
				</linearGradient>
				<path
   style="fill:url(#linearGradient47)"
   d="m 268.986,131.77 -20.333,-0.237 3.561,3.719 c -45.734,22.18 -102.88,33.704 -103.641,22.773 -25.194,48.968 88.331,-1.582 120.413,-26.255 z"
   id="path33" />
				
					<radialGradient
   id="SVGID_00000039836190115151843880000006954977017368282000_"
   cx="201.8269"
   cy="220.61031"
   r="153.3477"
   gradientUnits="userSpaceOnUse"
   style="fill:url(#linearGradient4)">
					<stop
   offset="0"
   style="stop-color:#7B728C;fill:url(#linearGradient4)"
   id="stop34" />
					<stop
   offset="1"
   style="stop-color:#E1D9FF;stop-opacity:0;fill:url(#linearGradient4)"
   id="stop35" />
				</radialGradient>
				<path
   style="fill:url(#linearGradient48)"
   d="m 268.991,131.765 c -32.091,24.676 -145.608,75.232 -120.414,26.257 -2.448,8.825 2.531,12.933 12.341,12.524 26.779,-1.124 63.846,-17.013 96.21,-32.864 -3.601,-3.526 6.897,-4.739 11.863,-5.917 z"
   id="path35" />
			</g><g
       id="g2"
       transform="matrix(0.63340259,0,0,0.7962758,-14.946102,19.657297)"><text
         transform="scale(1.0797159,0.92616955)"
         id="text13"
         x="198.38487"
         y="115.48026"
         style="font-size:3.79883px;stroke-width:0.316571"><tspan
           x="198.38487"
           y="115.48026"
           style="font-size:19.9033px;font-family:Exo2-Light;fill:#353e45;stroke-width:0.316571"
           id="tspan12">CostaCode</tspan></text><text
         transform="scale(1.0797159,0.92616955)"
         id="text13-1"
         x="198.98396"
         y="116.13044"
         style="font-size:3.79883px;fill:url(#linearGradient52);fill-opacity:1;stroke-width:0.316571"><tspan
           x="198.98396"
           y="116.13044"
           style="font-size:19.9033px;font-family:Exo2-Light;fill:url(#linearGradient52);fill-opacity:1;stroke-width:0.316571"
           id="tspan12-2">CostaCode</tspan></text></g><path
       style="fill:url(#SVGID_00000078016161882414074580000012325035365462000820_);stroke-width:0.49719"
       d="m 204.98748,112.75832 -1.27529,-3.18333 -6.92404,-17.269937 c -0.93625,-2.341759 -2.94564,-3.835492 -5.15764,-3.835492 h -82.26969 c -2.21199,0 -4.2214,1.49427 -5.15764,3.835492 l -6.924035,17.269937 -1.275744,3.18333 c -0.303661,0.74687 -0.404731,1.52925 -0.344088,2.27073 0.162164,2.15182 1.700687,4.0136 3.750518,4.0136 H 201.58104 c 2.04985,0 3.58881,-1.86178 3.75555,-4.0136 0.0561,-0.74095 -0.045,-1.52386 -0.34911,-2.27073 z m -17.01561,-5.51863 h -25.60814 l 0.10519,0.26258 c 0.34409,0.85826 -0.19065,1.84403 -1.0001,1.84403 h -21.94723 c -0.80946,0 -1.34418,-0.98577 -1.00009,-1.84403 l 0.10519,-0.26258 h -25.60816 c -1.60649,0 -2.6677,-1.95703 -1.98504,-3.66061 l 3.41745,-8.523859 c 0.54025,-1.347909 1.69701,-2.208316 2.96816,-2.208316 h 66.15129 c 1.27115,0 2.42792,0.860407 2.96817,2.208316 l 3.41746,8.523859 c 0.68403,1.70358 -0.37716,3.66061 -1.98415,3.66061 z"
       id="path39" /></g></svg>
